<svg xmlns="http://www.w3.org/2000/svg" width="80" height="80" viewBox="0 0 80 80" fill="none">
  <rect width="80" height="80" rx="16" fill="#58ffe3"/>
  
  <g transform="translate(13, 20)">
    <path d="M37.207 0C47.0575 0.000138117 52.6689 4.35833 52.6689 12C52.6689 18.5075 48.9081 22.3881 41.3857 23.1045V23.582C44.9679 24.5373 46.3414 26.4479 47.834 29.2539L53.625 40H43.2363L37.7441 29.6123C36.1322 26.5078 34.6392 25.4932 29.9824 25.4932H24.0723V18.7461H37.1465C41.3853 18.7461 43.2959 17.5522 43.2959 13.373C43.2958 9.43285 41.3853 8.05957 37.1465 8.05957H24.0723V0H37.207ZM19.1191 39.998H5.94238V34.7344L0 28.4307H19.1191V39.998ZM19.1191 25.7852H5.94238V20.5166L0 14.2119H19.1191V25.7852ZM19.1191 11.5674H5.94238V6.30273L0 0H19.1191V11.5674Z" fill="#003545"/>
  </g>
</svg>